<svg width="64" height="64" viewBox="0 0 64 64" fill="none" xmlns="http://www.w3.org/2000/svg">
<rect width="64" height="64" rx="32" fill="black"/>
<path fill-rule="evenodd" clip-rule="evenodd" d="M40.7721 17.7282L32.0122 12.9785C29.4548 15.8772 27.533 19.1805 26.3086 22.6904C33.0475 24.0117 39.0021 27.3382 43.4286 31.9803C46.0541 34.7335 48.1402 37.9465 49.5351 41.4739V22.4779H49.532L40.7752 17.7282H40.7721Z" fill="#FFFDFD"/>
<path opacity="0.3" fill-rule="evenodd" clip-rule="evenodd" d="M29.3477 16.489C29.3664 16.4598 29.3883 16.4306 29.407 16.4014L29.3477 16.489Z" fill="#FFFDFD"/>
<path fill-rule="evenodd" clip-rule="evenodd" d="M26.2984 41.2558C22.4485 42.0154 18.4405 42.1056 14.4883 41.4741L23.2513 46.2238L32.0143 50.9735L40.7742 46.2238L49.5373 41.4741C48.1424 37.9438 46.0562 34.7308 43.4307 31.9805C38.8431 36.8 32.7955 39.9781 26.3046 41.2558H26.2984Z" fill="#FFFDFD"/>
<path fill-rule="evenodd" clip-rule="evenodd" d="M14.4883 22.478V41.4768C18.4405 42.1083 22.4485 42.0152 26.2984 41.2585C24.1471 35.1176 24.2401 28.613 26.3046 22.6933C27.5321 19.1834 29.4508 15.8802 32.0081 12.9814L23.2451 17.7312L14.4883 22.478Z" fill="#FFFDFD"/>
</svg>
