<svg width="96" height="96" viewBox="0 0 96 96" fill="none" xmlns="http://www.w3.org/2000/svg">
<path d="M23.0193 14.7044L48.5 0L73.9807 14.7044L64.6128 20.1366L48.5 10.8644L32.3872 20.1366L23.0193 14.7044ZM73.9807 33.2488L64.6128 27.8166L48.5 37.0888L32.3872 27.8166L23.0193 33.2488V44.1132L39.1321 53.3854V71.9297L48.5 77.362L57.8679 71.9297V53.3854L73.9807 44.1132V33.2488ZM73.9807 62.6576V51.7932L64.6128 57.2254V68.0898L73.9807 62.6576ZM80.6321 66.4976L64.5193 75.7698V86.6341L90 71.9297V42.521L80.6321 47.9532V66.4976ZM71.2641 23.9766L80.6321 29.4088V40.2732L90 34.841V23.9766L80.6321 18.5444L71.2641 23.9766ZM39.1321 79.7034V90.5678L48.5 96L57.8679 90.5678V79.7034L48.5 85.1356L39.1321 79.7034ZM23.0193 62.6576L32.3872 68.0898V57.2254L23.0193 51.7932V62.6576ZM39.1321 23.9766L48.5 29.4088L57.8679 23.9766L48.5 18.5444L39.1321 23.9766ZM16.3679 29.4088L25.7359 23.9766L16.3679 18.5444L7 23.9766V34.841L16.3679 40.2732V29.4088ZM16.3679 47.9532L7 42.521V71.9297L32.4807 86.6341V75.7698L16.3679 66.4976V47.9532Z" fill="#F1B90C"/>
</svg>
