<svg width="612" height="153" viewBox="0 0 612 153" fill="none" xmlns="http://www.w3.org/2000/svg">
<path fill-rule="evenodd" clip-rule="evenodd" d="M153 76.5C153 118.75 118.69 153 76.3665 153C36.2125 153 3.27153 122.171 0 82.9304H101.292V70.0695H0C3.27153 30.8289 36.2125 0 76.3665 0C118.69 0 153 34.2501 153 76.5Z" fill="#0052FF"/>
<path d="M176 142.239V109.267H188.222C190.725 109.267 192.826 109.739 194.524 110.684C196.232 111.628 197.521 112.927 198.391 114.58C199.271 116.222 199.711 118.09 199.711 120.182C199.711 122.297 199.271 124.175 198.391 125.817C197.51 127.459 196.21 128.753 194.492 129.697C192.773 130.631 190.656 131.098 188.142 131.098H180.042V126.188H187.346C188.811 126.188 190.009 125.93 190.943 125.415C191.877 124.9 192.566 124.191 193.012 123.29C193.468 122.388 193.696 121.352 193.696 120.182C193.696 119.013 193.468 117.982 193.012 117.091C192.566 116.201 191.871 115.508 190.927 115.015C189.993 114.51 188.789 114.258 187.315 114.258H181.904V142.239H176Z" fill="black"/>
<path d="M203.241 142.239V117.51H208.826V121.631H209.081C209.526 120.204 210.29 119.104 211.372 118.331C212.465 117.548 213.712 117.156 215.112 117.156C215.43 117.156 215.786 117.172 216.178 117.204C216.582 117.226 216.916 117.263 217.181 117.317V122.678C216.937 122.592 216.55 122.517 216.019 122.452C215.499 122.377 214.995 122.34 214.507 122.34C213.457 122.34 212.513 122.571 211.675 123.032C210.847 123.483 210.195 124.111 209.717 124.916C209.24 125.721 209.001 126.649 209.001 127.701V142.239H203.241Z" fill="black"/>
<path d="M229.319 142.722C226.932 142.722 224.864 142.19 223.113 141.128C221.363 140.065 220.005 138.579 219.039 136.668C218.084 134.758 217.607 132.525 217.607 129.971C217.607 127.416 218.084 125.179 219.039 123.257C220.005 121.336 221.363 119.844 223.113 118.782C224.864 117.719 226.932 117.188 229.319 117.188C231.706 117.188 233.775 117.719 235.526 118.782C237.276 119.844 238.629 121.336 239.584 123.257C240.549 125.179 241.032 127.416 241.032 129.971C241.032 132.525 240.549 134.758 239.584 136.668C238.629 138.579 237.276 140.065 235.526 141.128C233.775 142.19 231.706 142.722 229.319 142.722ZM229.351 138.053C230.646 138.053 231.728 137.693 232.598 136.974C233.468 136.244 234.115 135.268 234.539 134.044C234.974 132.82 235.192 131.457 235.192 129.955C235.192 128.441 234.974 127.073 234.539 125.849C234.115 124.615 233.468 123.633 232.598 122.903C231.728 122.173 230.646 121.809 229.351 121.809C228.025 121.809 226.922 122.173 226.041 122.903C225.171 123.633 224.519 124.615 224.084 125.849C223.659 127.073 223.447 128.441 223.447 129.955C223.447 131.457 223.659 132.82 224.084 134.044C224.519 135.268 225.171 136.244 226.041 136.974C226.922 137.693 228.025 138.053 229.351 138.053Z" fill="black"/>
<path d="M253.648 142.673C251.727 142.673 250.009 142.174 248.492 141.176C246.975 140.178 245.776 138.729 244.895 136.829C244.015 134.929 243.574 132.622 243.574 129.907C243.574 127.159 244.02 124.841 244.911 122.952C245.813 121.052 247.028 119.619 248.555 118.653C250.083 117.676 251.786 117.188 253.664 117.188C255.096 117.188 256.273 117.435 257.196 117.929C258.119 118.412 258.852 118.997 259.393 119.683C259.934 120.36 260.353 120.998 260.65 121.599H260.888V109.267H266.665V142.239H261V138.343H260.65C260.353 138.944 259.923 139.582 259.361 140.258C258.798 140.924 258.056 141.493 257.133 141.965C256.21 142.437 255.048 142.673 253.648 142.673ZM255.255 137.892C256.475 137.892 257.515 137.559 258.374 136.894C259.233 136.217 259.886 135.278 260.331 134.076C260.777 132.874 261 131.474 261 129.874C261 128.275 260.777 126.885 260.331 125.705C259.897 124.524 259.249 123.606 258.39 122.952C257.541 122.297 256.496 121.97 255.255 121.97C253.971 121.97 252.9 122.308 252.04 122.984C251.181 123.66 250.534 124.594 250.099 125.785C249.664 126.976 249.447 128.339 249.447 129.874C249.447 131.42 249.664 132.799 250.099 134.012C250.545 135.214 251.197 136.164 252.056 136.861C252.926 137.548 253.993 137.892 255.255 137.892Z" fill="black"/>
<path d="M287.039 131.838V117.51H292.8V142.239H287.214V137.843H286.959C286.408 139.228 285.501 140.36 284.238 141.24C282.986 142.121 281.443 142.561 279.607 142.561C278.005 142.561 276.589 142.201 275.358 141.482C274.138 140.752 273.183 139.695 272.494 138.31C271.804 136.915 271.459 135.23 271.459 133.255V117.51H277.22V132.354C277.22 133.921 277.645 135.166 278.493 136.089C279.342 137.012 280.456 137.473 281.835 137.473C282.684 137.473 283.506 137.264 284.302 136.845C285.097 136.427 285.75 135.804 286.259 134.978C286.779 134.141 287.039 133.094 287.039 131.838Z" fill="black"/>
<path d="M308.041 142.722C305.601 142.722 303.506 142.18 301.755 141.096C300.016 140.012 298.673 138.514 297.729 136.604C296.796 134.683 296.329 132.472 296.329 129.971C296.329 127.459 296.806 125.243 297.761 123.322C298.716 121.39 300.063 119.887 301.803 118.814C303.554 117.73 305.622 117.188 308.009 117.188C309.993 117.188 311.749 117.558 313.277 118.299C314.815 119.029 316.041 120.064 316.953 121.406C317.865 122.737 318.385 124.293 318.513 126.075H313.006C312.784 124.884 312.253 123.891 311.415 123.096C310.588 122.292 309.479 121.889 308.089 121.889C306.911 121.889 305.877 122.211 304.986 122.855C304.095 123.488 303.4 124.401 302.901 125.592C302.413 126.783 302.169 128.211 302.169 129.874C302.169 131.559 302.413 133.008 302.901 134.221C303.389 135.423 304.074 136.352 304.954 137.006C305.845 137.65 306.89 137.972 308.089 137.972C308.938 137.972 309.696 137.811 310.365 137.489C311.044 137.157 311.611 136.679 312.067 136.056C312.524 135.434 312.837 134.677 313.006 133.786H318.513C318.375 135.536 317.865 137.087 316.985 138.439C316.104 139.781 314.905 140.833 313.388 141.595C311.871 142.346 310.089 142.722 308.041 142.722Z" fill="black"/>
<path d="M334.104 117.51V122.018H320.052V117.51H334.104ZM323.522 111.585H329.282V134.801C329.282 135.584 329.399 136.185 329.633 136.604C329.877 137.012 330.195 137.291 330.587 137.441C330.98 137.591 331.415 137.666 331.892 137.666C332.253 137.666 332.582 137.64 332.879 137.586C333.187 137.532 333.42 137.484 333.579 137.441L334.55 141.997C334.242 142.104 333.802 142.223 333.229 142.351C332.667 142.48 331.977 142.555 331.16 142.577C329.717 142.62 328.418 142.4 327.261 141.917C326.105 141.423 325.187 140.661 324.508 139.631C323.84 138.6 323.511 137.312 323.522 135.767V111.585Z" fill="black"/>
<path d="M358.011 142.722C355.624 142.722 353.555 142.19 351.805 141.128C350.054 140.065 348.696 138.579 347.731 136.668C346.776 134.758 346.299 132.525 346.299 129.971C346.299 127.416 346.776 125.179 347.731 123.257C348.696 121.336 350.054 119.844 351.805 118.782C353.555 117.719 355.624 117.188 358.011 117.188C360.398 117.188 362.467 117.719 364.218 118.782C365.968 119.844 367.321 121.336 368.276 123.257C369.241 125.179 369.724 127.416 369.724 129.971C369.724 132.525 369.241 134.758 368.276 136.668C367.321 138.579 365.968 140.065 364.218 141.128C362.467 142.19 360.398 142.722 358.011 142.722ZM358.043 138.053C359.337 138.053 360.419 137.693 361.289 136.974C362.159 136.244 362.807 135.268 363.231 134.044C363.666 132.82 363.883 131.457 363.883 129.955C363.883 128.441 363.666 127.073 363.231 125.849C362.807 124.615 362.159 123.633 361.289 122.903C360.419 122.173 359.337 121.809 358.043 121.809C356.717 121.809 355.614 122.173 354.733 122.903C353.863 123.633 353.211 124.615 352.776 125.849C352.351 127.073 352.139 128.441 352.139 129.955C352.139 131.457 352.351 132.82 352.776 134.044C353.211 135.268 353.863 136.244 354.733 136.974C355.614 137.693 356.717 138.053 358.043 138.053Z" fill="black"/>
<path d="M385.65 117.51V122.018H371.2V117.51H385.65ZM374.812 142.239V115.176C374.812 113.512 375.152 112.127 375.831 111.022C376.52 109.916 377.443 109.09 378.6 108.543C379.756 107.995 381.04 107.722 382.451 107.722C383.448 107.722 384.334 107.802 385.109 107.963C385.883 108.124 386.456 108.269 386.827 108.398L385.681 112.906C385.437 112.83 385.13 112.755 384.758 112.68C384.387 112.594 383.973 112.551 383.517 112.551C382.446 112.551 381.687 112.814 381.241 113.34C380.807 113.855 380.589 114.596 380.589 115.562V142.239H374.812Z" fill="black"/>
<path d="M398.095 142.239V109.267H420.819V115.739H405.972V122.501H419.658V128.989H405.972V135.767H420.819V142.239H398.095Z" fill="black"/>
<path d="M438.205 117.51V123.306H422.785V117.51H438.205ZM426.016 111.585H433.797V134.463C433.797 134.946 433.872 135.337 434.02 135.638C434.179 135.928 434.407 136.137 434.704 136.266C435.001 136.384 435.357 136.443 435.771 136.443C436.068 136.443 436.381 136.416 436.71 136.362C437.049 136.298 437.304 136.244 437.473 136.201L438.651 141.884C438.28 141.992 437.755 142.126 437.076 142.287C436.407 142.448 435.606 142.55 434.673 142.593C432.848 142.679 431.283 142.464 429.978 141.949C428.684 141.423 427.692 140.607 427.002 139.502C426.323 138.396 425.994 137.006 426.016 135.332V111.585Z" fill="black"/>
<path d="M449.138 128.136V142.239H441.357V109.267H448.884V122.05H449.154C449.706 120.526 450.608 119.335 451.86 118.476C453.122 117.617 454.666 117.188 456.491 117.188C458.209 117.188 459.705 117.574 460.978 118.347C462.251 119.109 463.238 120.188 463.938 121.583C464.649 122.978 464.999 124.61 464.988 126.477V142.239H457.207V128.023C457.217 126.649 456.878 125.576 456.188 124.803C455.499 124.03 454.528 123.644 453.276 123.644C452.459 123.644 451.738 123.826 451.112 124.191C450.496 124.545 450.014 125.055 449.664 125.721C449.324 126.386 449.149 127.191 449.138 128.136Z" fill="black"/>
<path d="M479.928 142.705C477.371 142.705 475.164 142.196 473.308 141.176C471.462 140.146 470.04 138.681 469.043 136.781C468.056 134.87 467.563 132.6 467.563 129.971C467.563 127.416 468.061 125.184 469.059 123.274C470.056 121.352 471.462 119.861 473.276 118.798C475.09 117.725 477.228 117.188 479.689 117.188C481.429 117.188 483.02 117.462 484.463 118.009C485.906 118.556 487.153 119.367 488.203 120.44C489.253 121.513 490.07 122.839 490.654 124.417C491.237 125.984 491.529 127.781 491.529 129.81V131.774H470.284V127.202H484.288C484.277 126.365 484.081 125.619 483.699 124.964C483.317 124.309 482.792 123.799 482.124 123.435C481.466 123.059 480.708 122.871 479.848 122.871C478.978 122.871 478.198 123.07 477.509 123.467C476.819 123.853 476.273 124.384 475.87 125.061C475.467 125.726 475.254 126.483 475.233 127.331V131.983C475.233 132.992 475.429 133.878 475.822 134.64C476.215 135.391 476.772 135.976 477.493 136.395C478.214 136.813 479.074 137.022 480.071 137.022C480.761 137.022 481.387 136.926 481.949 136.733C482.511 136.539 482.994 136.255 483.397 135.879C483.8 135.504 484.102 135.042 484.304 134.495L491.449 134.704C491.152 136.325 490.5 137.736 489.492 138.938C488.495 140.13 487.184 141.058 485.561 141.723C483.938 142.378 482.06 142.705 479.928 142.705Z" fill="black"/>
<path d="M494.159 142.239V117.51H501.718V122.018H501.973C502.418 120.386 503.145 119.174 504.153 118.379C505.161 117.574 506.333 117.172 507.67 117.172C508.03 117.172 508.402 117.199 508.784 117.252C509.165 117.295 509.521 117.365 509.85 117.462V124.304C509.478 124.175 508.99 124.073 508.386 123.998C507.792 123.923 507.261 123.885 506.794 123.885C505.871 123.885 505.039 124.095 504.296 124.513C503.564 124.921 502.986 125.495 502.561 126.236C502.148 126.966 501.941 127.824 501.941 128.812V142.239H494.159Z" fill="black"/>
<path d="M533.016 125.061L525.871 125.254C525.797 124.739 525.595 124.282 525.266 123.885C524.938 123.477 524.508 123.161 523.977 122.935C523.458 122.699 522.853 122.581 522.163 122.581C521.262 122.581 520.492 122.764 519.856 123.129C519.23 123.494 518.922 123.987 518.933 124.61C518.922 125.093 519.113 125.511 519.506 125.866C519.909 126.22 520.625 126.504 521.654 126.719L526.365 127.62C528.805 128.093 530.619 128.876 531.807 129.971C533.006 131.066 533.611 132.515 533.621 134.318C533.611 136.014 533.112 137.489 532.125 138.745C531.149 140.001 529.812 140.977 528.115 141.675C526.418 142.362 524.476 142.705 522.291 142.705C518.8 142.705 516.047 141.981 514.031 140.532C512.026 139.072 510.881 137.119 510.594 134.672L518.28 134.479C518.45 135.38 518.89 136.067 519.601 136.539C520.312 137.012 521.219 137.248 522.322 137.248C523.32 137.248 524.131 137.06 524.757 136.684C525.383 136.309 525.701 135.81 525.712 135.187C525.701 134.629 525.457 134.184 524.98 133.851C524.503 133.507 523.755 133.239 522.736 133.046L518.471 132.225C516.021 131.774 514.196 130.942 512.997 129.729C511.798 128.506 511.204 126.95 511.215 125.061C511.204 123.408 511.639 121.996 512.52 120.826C513.4 119.646 514.652 118.744 516.275 118.122C517.898 117.499 519.813 117.188 522.02 117.188C525.33 117.188 527.94 117.891 529.85 119.297C531.759 120.692 532.815 122.613 533.016 125.061Z" fill="black"/>
<path d="M547.518 142.705C544.94 142.705 542.728 142.169 540.882 141.096C539.047 140.022 537.636 138.53 536.649 136.62C535.662 134.699 535.169 132.477 535.169 129.955C535.169 127.422 535.662 125.2 536.649 123.29C537.646 121.368 539.063 119.871 540.898 118.798C542.744 117.725 544.945 117.188 547.502 117.188C549.762 117.188 551.73 117.601 553.406 118.428C555.093 119.254 556.408 120.424 557.353 121.937C558.308 123.44 558.811 125.205 558.864 127.234H551.592C551.443 125.968 551.019 124.975 550.319 124.256C549.629 123.537 548.728 123.177 547.614 123.177C546.712 123.177 545.921 123.435 545.242 123.95C544.563 124.454 544.033 125.205 543.651 126.204C543.28 127.191 543.094 128.415 543.094 129.874C543.094 131.334 543.28 132.568 543.651 133.577C544.033 134.575 544.563 135.332 545.242 135.847C545.921 136.352 546.712 136.604 547.614 136.604C548.335 136.604 548.972 136.448 549.523 136.137C550.085 135.826 550.547 135.37 550.908 134.769C551.268 134.157 551.496 133.416 551.592 132.547H558.864C558.79 134.586 558.286 136.368 557.353 137.892C556.43 139.416 555.13 140.602 553.454 141.45C551.788 142.287 549.81 142.705 547.518 142.705Z" fill="black"/>
<path d="M568.393 142.657C566.834 142.657 565.449 142.394 564.24 141.868C563.041 141.332 562.091 140.527 561.391 139.453C560.702 138.369 560.357 137.012 560.357 135.38C560.357 134.006 560.595 132.847 561.073 131.903C561.55 130.958 562.208 130.191 563.046 129.601C563.884 129.01 564.85 128.565 565.942 128.264C567.035 127.953 568.202 127.744 569.443 127.636C570.833 127.508 571.952 127.374 572.801 127.234C573.65 127.084 574.265 126.874 574.647 126.606C575.04 126.327 575.236 125.935 575.236 125.431V125.35C575.236 124.524 574.955 123.885 574.393 123.435C573.83 122.984 573.072 122.758 572.117 122.758C571.088 122.758 570.26 122.984 569.634 123.435C569.008 123.885 568.611 124.508 568.441 125.302L561.264 125.044C561.476 123.542 562.022 122.2 562.903 121.02C563.794 119.828 565.014 118.895 566.563 118.218C568.123 117.531 569.995 117.188 572.181 117.188C573.74 117.188 575.178 117.376 576.493 117.751C577.809 118.116 578.955 118.653 579.931 119.361C580.907 120.059 581.66 120.918 582.19 121.937C582.731 122.957 583.002 124.121 583.002 125.431V142.239H575.682V138.793H575.491C575.056 139.631 574.499 140.339 573.82 140.918C573.151 141.498 572.361 141.933 571.449 142.223C570.547 142.512 569.528 142.657 568.393 142.657ZM570.796 137.505C571.634 137.505 572.387 137.334 573.056 136.99C573.735 136.647 574.276 136.175 574.679 135.573C575.082 134.962 575.284 134.253 575.284 133.448V131.098C575.061 131.216 574.79 131.323 574.472 131.42C574.164 131.516 573.825 131.608 573.454 131.694C573.082 131.779 572.7 131.855 572.308 131.919C571.915 131.983 571.539 132.042 571.178 132.096C570.446 132.214 569.82 132.397 569.3 132.643C568.791 132.89 568.398 133.212 568.123 133.609C567.857 133.996 567.725 134.457 567.725 134.994C567.725 135.81 568.011 136.432 568.584 136.861C569.168 137.291 569.905 137.505 570.796 137.505Z" fill="black"/>
<path d="M594.197 128.136V142.239H586.416V117.51H593.816V122.05H594.086C594.627 120.537 595.55 119.351 596.855 118.492C598.16 117.623 599.714 117.188 601.518 117.188C603.236 117.188 604.727 117.58 605.99 118.363C607.263 119.136 608.249 120.22 608.949 121.615C609.66 123 610.01 124.621 610 126.477V142.239H602.218V128.023C602.229 126.649 601.884 125.576 601.184 124.803C600.494 124.03 599.534 123.644 598.303 123.644C597.486 123.644 596.765 123.826 596.139 124.191C595.524 124.545 595.046 125.055 594.707 125.721C594.378 126.386 594.208 127.191 594.197 128.136Z" fill="black"/>
<path d="M174.99 83.7216V10.9943H201.624C206.785 10.9943 211.058 11.8466 214.443 13.5511C217.829 15.232 220.362 17.5166 222.043 20.4048C223.724 23.2694 224.564 26.5009 224.564 30.0994C224.564 33.1297 224.008 35.6866 222.895 37.7699C221.782 39.8295 220.291 41.4867 218.421 42.7415C216.574 43.9725 214.538 44.8722 212.313 45.4403V46.1506C214.727 46.2689 217.083 47.0502 219.379 48.4943C221.7 49.9148 223.617 51.9389 225.132 54.5668C226.647 57.1946 227.405 60.3906 227.405 64.1548C227.405 67.8717 226.529 71.2098 224.777 74.169C223.049 77.1046 220.374 79.4366 216.752 81.1648C213.129 82.8693 208.501 83.7216 202.867 83.7216H174.99ZM185.963 74.3111H201.801C207.057 74.3111 210.821 73.2931 213.094 71.2571C215.367 69.2211 216.503 66.6761 216.503 63.6222C216.503 61.3258 215.923 59.2188 214.763 57.3011C213.603 55.3835 211.946 53.8565 209.791 52.7202C207.661 51.5838 205.128 51.0156 202.192 51.0156H185.963V74.3111ZM185.963 42.4574H200.665C203.127 42.4574 205.341 41.9839 207.306 41.0369C209.294 40.09 210.869 38.7642 212.029 37.0597C213.212 35.3314 213.804 33.2955 213.804 30.9517C213.804 27.9451 212.751 25.4238 210.644 23.3878C208.537 21.3518 205.305 20.3338 200.949 20.3338H185.963V42.4574Z" fill="#0052FF"/>
<path d="M252.441 84.929C248.985 84.929 245.86 84.2898 243.066 83.0114C240.273 81.7093 238.059 79.8272 236.426 77.3651C234.816 74.9029 234.011 71.8845 234.011 68.3097C234.011 65.232 234.603 62.6989 235.786 60.7102C236.97 58.7216 238.568 57.1473 240.58 55.9872C242.593 54.8272 244.842 53.9512 247.328 53.3594C249.813 52.7675 252.347 52.3177 254.927 52.0099C258.194 51.6312 260.846 51.3234 262.882 51.0867C264.918 50.8262 266.397 50.4119 267.32 49.8438C268.244 49.2756 268.705 48.3523 268.705 47.0739V46.8253C268.705 43.724 267.829 41.321 266.078 39.6165C264.349 37.9119 261.769 37.0597 258.336 37.0597C254.761 37.0597 251.944 37.8527 249.884 39.4389C247.848 41.0014 246.44 42.7415 245.659 44.6591L235.68 42.3864C236.864 39.072 238.592 36.3968 240.865 34.3608C243.161 32.3011 245.801 30.8097 248.784 29.8864C251.767 28.9394 254.903 28.4659 258.194 28.4659C260.372 28.4659 262.68 28.7263 265.119 29.2472C267.581 29.7443 269.877 30.6676 272.008 32.017C274.162 33.3665 275.926 35.2959 277.299 37.8054C278.672 40.2912 279.359 43.5227 279.359 47.5V83.7216H268.99V76.2642H268.563C267.877 77.6373 266.847 78.9867 265.474 80.3125C264.101 81.6383 262.337 82.7391 260.183 83.6151C258.028 84.491 255.448 84.929 252.441 84.929ZM254.749 76.4062C257.685 76.4062 260.195 75.8262 262.278 74.6662C264.385 73.5062 265.983 71.991 267.072 70.1207C268.185 68.2268 268.741 66.2027 268.741 64.0483V57.017C268.362 57.3958 267.628 57.7509 266.539 58.0824C265.474 58.3902 264.255 58.6624 262.882 58.8992C261.508 59.1122 260.171 59.3134 258.869 59.5028C257.567 59.6686 256.478 59.8106 255.602 59.929C253.542 60.1894 251.66 60.6274 249.955 61.2429C248.275 61.8584 246.925 62.7462 245.907 63.9062C244.913 65.0426 244.416 66.5578 244.416 68.4517C244.416 71.0795 245.386 73.0682 247.328 74.4176C249.269 75.7434 251.743 76.4062 254.749 76.4062Z" fill="#0052FF"/>
<path d="M331.375 42.4929L321.751 44.1974C321.349 42.9664 320.71 41.7945 319.834 40.6818C318.981 39.5691 317.821 38.6577 316.354 37.9474C314.886 37.2372 313.051 36.8821 310.849 36.8821C307.843 36.8821 305.333 37.5568 303.321 38.9062C301.309 40.232 300.302 41.9484 300.302 44.0554C300.302 45.8783 300.977 47.3461 302.327 48.4588C303.676 49.5715 305.854 50.483 308.861 51.1932L317.525 53.1818C322.544 54.3419 326.285 56.1293 328.747 58.544C331.209 60.9588 332.44 64.0956 332.44 67.9545C332.44 71.2216 331.493 74.1335 329.599 76.6903C327.729 79.2235 325.113 81.2121 321.751 82.6562C318.413 84.1004 314.542 84.8224 310.139 84.8224C304.031 84.8224 299.048 83.5204 295.189 80.9162C291.33 78.2884 288.962 74.5597 288.086 69.7301L298.349 68.1676C298.988 70.8428 300.302 72.867 302.291 74.2401C304.28 75.5895 306.872 76.2642 310.068 76.2642C313.548 76.2642 316.33 75.5421 318.413 74.098C320.497 72.6302 321.538 70.8428 321.538 68.7358C321.538 67.0313 320.899 65.599 319.621 64.4389C318.366 63.2789 316.436 62.4029 313.832 61.8111L304.599 59.7869C299.509 58.6269 295.745 56.7803 293.307 54.2472C290.892 51.714 289.684 48.5062 289.684 44.6236C289.684 41.4039 290.584 38.5866 292.383 36.1719C294.183 33.7571 296.668 31.875 299.841 30.5256C303.013 29.1525 306.647 28.4659 310.743 28.4659C316.638 28.4659 321.278 29.7443 324.663 32.3011C328.049 34.8343 330.286 38.2315 331.375 42.4929Z" fill="#0052FF"/>
<path d="M364.623 84.8224C359.249 84.8224 354.621 83.6742 350.738 81.3778C346.879 79.0578 343.896 75.8026 341.789 71.6122C339.706 67.3982 338.664 62.4621 338.664 56.804C338.664 51.2169 339.706 46.2926 341.789 42.0312C343.896 37.7699 346.832 34.4437 350.596 32.0526C354.384 29.6615 358.811 28.4659 363.877 28.4659C366.955 28.4659 369.938 28.9749 372.826 29.9929C375.714 31.0109 378.307 32.6089 380.603 34.7869C382.9 36.965 384.711 39.794 386.036 43.2742C387.362 46.7306 388.025 50.9328 388.025 55.8807V59.6449H344.666V51.6903H377.62C377.62 48.8968 377.052 46.4228 375.916 44.2685C374.779 42.0904 373.181 40.3741 371.122 39.1193C369.086 37.8646 366.695 37.2372 363.948 37.2372C360.965 37.2372 358.361 37.9711 356.136 39.4389C353.934 40.8831 352.23 42.777 351.022 45.1207C349.838 47.4408 349.247 49.9621 349.247 52.6847V58.8992C349.247 62.545 349.886 65.6463 351.164 68.2031C352.466 70.7599 354.277 72.7131 356.597 74.0625C358.918 75.3883 361.628 76.0511 364.73 76.0511C366.742 76.0511 368.577 75.767 370.234 75.1989C371.891 74.607 373.323 73.7311 374.531 72.571C375.738 71.411 376.661 69.9787 377.301 68.2742L387.35 70.0852C386.545 73.0445 385.101 75.6368 383.018 77.8622C380.958 80.0639 378.366 81.7803 375.241 83.0114C372.14 84.2188 368.6 84.8224 364.623 84.8224Z" fill="#0052FF"/>
<path d="M437.324 30.0994C436.946 26.7377 435.383 24.1335 432.637 22.2869C429.891 20.4167 426.434 19.4815 422.268 19.4815C419.285 19.4815 416.704 19.955 414.526 20.902C412.348 21.8253 410.655 23.1037 409.448 24.7372C408.264 26.3471 407.672 28.1818 407.672 30.2415C407.672 31.9697 408.075 33.4612 408.88 34.7159C409.708 35.9706 410.786 37.0241 412.111 37.8764C413.461 38.705 414.905 39.4034 416.444 39.9716C417.983 40.5161 419.462 40.9659 420.883 41.321L427.985 43.1676C430.305 43.7358 432.684 44.5052 435.123 45.4759C437.561 46.4465 439.822 47.7249 441.905 49.3111C443.989 50.8973 445.67 52.8622 446.948 55.206C448.25 57.5497 448.901 60.3551 448.901 63.6222C448.901 67.7415 447.836 71.3991 445.705 74.5952C443.598 77.7912 440.532 80.3125 436.508 82.1591C432.507 84.0057 427.665 84.929 421.983 84.929C416.538 84.929 411.827 84.0649 407.85 82.3366C403.873 80.6084 400.76 78.1581 398.51 74.9858C396.261 71.7898 395.019 68.0019 394.782 63.6222H405.79C406.003 66.25 406.856 68.4399 408.347 70.1918C409.862 71.92 411.792 73.2102 414.135 74.0625C416.503 74.8911 419.095 75.3054 421.912 75.3054C425.014 75.3054 427.772 74.8201 430.187 73.8494C432.625 72.8551 434.543 71.482 435.939 69.7301C437.336 67.9545 438.035 65.883 438.035 63.5156C438.035 61.3613 437.419 59.5975 436.188 58.2244C434.981 56.8513 433.335 55.715 431.252 54.8153C429.192 53.9157 426.86 53.1226 424.256 52.4361L415.662 50.0923C409.839 48.5062 405.222 46.1742 401.813 43.0966C398.428 40.0189 396.735 35.947 396.735 30.8807C396.735 26.6903 397.871 23.0327 400.144 19.9077C402.417 16.7827 405.494 14.3561 409.377 12.6278C413.26 10.8759 417.639 10 422.516 10C427.44 10 431.785 10.8641 435.549 12.5923C439.337 14.3206 442.32 16.6998 444.498 19.7301C446.676 22.7367 447.812 26.1932 447.907 30.0994H437.324Z" fill="#0052FF"/>
<path d="M481.137 84.8224C475.858 84.8224 471.312 83.6269 467.501 81.2358C463.713 78.821 460.801 75.4948 458.765 71.2571C456.729 67.0194 455.711 62.1662 455.711 56.6974C455.711 51.1577 456.753 46.2689 458.836 42.0312C460.919 37.7699 463.855 34.4437 467.643 32.0526C471.431 29.6615 475.893 28.4659 481.031 28.4659C485.174 28.4659 488.867 29.2353 492.11 30.7742C495.354 32.2893 497.97 34.42 499.958 37.1662C501.971 39.9124 503.166 43.1203 503.545 46.7898H493.211C492.643 44.233 491.341 42.0313 489.305 40.1847C487.293 38.3381 484.594 37.4148 481.208 37.4148C478.249 37.4148 475.657 38.196 473.431 39.7585C471.23 41.2974 469.513 43.4991 468.282 46.3636C467.051 49.2045 466.436 52.5663 466.436 56.4489C466.436 60.4261 467.039 63.8589 468.247 66.7472C469.454 69.6354 471.159 71.8726 473.36 73.4588C475.586 75.045 478.202 75.8381 481.208 75.8381C483.221 75.8381 485.044 75.4711 486.677 74.7372C488.334 73.9796 489.719 72.9025 490.832 71.5057C491.968 70.1089 492.761 68.428 493.211 66.4631H503.545C503.166 69.9905 502.018 73.1392 500.1 75.9091C498.183 78.679 495.614 80.857 492.394 82.4432C489.198 84.0294 485.446 84.8224 481.137 84.8224Z" fill="#0052FF"/>
<path d="M527.773 84.929C524.317 84.929 521.192 84.2898 518.398 83.0114C515.605 81.7093 513.391 79.8272 511.758 77.3651C510.148 74.9029 509.343 71.8845 509.343 68.3097C509.343 65.232 509.935 62.6989 511.118 60.7102C512.302 58.7216 513.9 57.1473 515.912 55.9872C517.925 54.8272 520.174 53.9512 522.66 53.3594C525.145 52.7675 527.679 52.3177 530.259 52.0099C533.526 51.6312 536.178 51.3234 538.214 51.0867C540.25 50.8262 541.729 50.4119 542.653 49.8438C543.576 49.2756 544.037 48.3523 544.037 47.0739V46.8253C544.037 43.724 543.162 41.321 541.41 39.6165C539.681 37.9119 537.101 37.0597 533.668 37.0597C530.093 37.0597 527.276 37.8527 525.216 39.4389C523.18 41.0014 521.772 42.7415 520.991 44.6591L511.012 42.3864C512.196 39.072 513.924 36.3968 516.197 34.3608C518.493 32.3011 521.133 30.8097 524.116 29.8864C527.099 28.9394 530.235 28.4659 533.526 28.4659C535.704 28.4659 538.012 28.7263 540.451 29.2472C542.913 29.7443 545.209 30.6676 547.34 32.017C549.494 33.3665 551.258 35.2959 552.631 37.8054C554.004 40.2912 554.691 43.5227 554.691 47.5V83.7216H544.322V76.2642H543.895C543.209 77.6373 542.179 78.9867 540.806 80.3125C539.433 81.6383 537.669 82.7391 535.515 83.6151C533.36 84.491 530.78 84.929 527.773 84.929ZM530.082 76.4062C533.017 76.4062 535.527 75.8262 537.61 74.6662C539.717 73.5062 541.315 71.991 542.404 70.1207C543.517 68.2268 544.073 66.2027 544.073 64.0483V57.017C543.694 57.3958 542.96 57.7509 541.871 58.0824C540.806 58.3902 539.587 58.6624 538.214 58.8992C536.84 59.1122 535.503 59.3134 534.201 59.5028C532.899 59.6686 531.81 59.8106 530.934 59.929C528.874 60.1894 526.992 60.6274 525.287 61.2429C523.607 61.8584 522.257 62.7462 521.239 63.9062C520.245 65.0426 519.748 66.5578 519.748 68.4517C519.748 71.0795 520.718 73.0682 522.66 74.4176C524.601 75.7434 527.075 76.4062 530.082 76.4062Z" fill="#0052FF"/>
<path d="M576.451 51.3352V83.7216H565.833V29.1761H576.025V38.054H576.7C577.954 35.1657 579.919 32.8456 582.595 31.0938C585.293 29.3419 588.691 28.4659 592.786 28.4659C596.503 28.4659 599.758 29.2472 602.552 30.8097C605.346 32.3485 607.512 34.6449 609.051 37.6989C610.589 40.7528 611.359 44.5289 611.359 49.027V83.7216H600.741V50.3054C600.741 46.3518 599.711 43.2623 597.651 41.0369C595.592 38.7879 592.763 37.6634 589.164 37.6634C586.702 37.6634 584.512 38.196 582.595 39.2614C580.701 40.3267 579.197 41.8892 578.085 43.9489C576.996 45.9848 576.451 48.447 576.451 51.3352Z" fill="#0052FF"/>
</svg>
