<?xml version="1.0"?>
<svg width="300" height="300" xmlns="http://www.w3.org/2000/svg" xmlns:svg="http://www.w3.org/2000/svg" version="1.1" xml:space="preserve">
 <metadata id="metadata8">image/svg+xml</metadata>
 <defs id="defs6">
  <clipPath clipPathUnits="userSpaceOnUse" id="clipPath20">
   <path d="m0,1000l1000,0l0,-1000l-1000,0l0,1000z" id="path18"/>
  </clipPath>
 </defs>
 <g class="layer">
  <title>Layer 1</title>
  <path d="m-1,304.33l303.33,0l0,-306.33l-303.33,0l0,306.33z" fill="#021737" fill-rule="nonzero" id="path12"/>
  <g id="svg_1" transform="matrix(1 0 0 1 0 0)">
   <g id="g22" transform="matrix(1.33333 0 0 -1.33333 57.5723 164.411)">
    <path d="m35.79,10.52c-9.65,-5.31 -21.95,-3.25 -28.85,5.29c-2.74,3.39 -4.37,7.42 -4.46,11.48c-0.1,4.16 1.43,8.34 4.13,11.9c6.79,8.93 19.38,11.26 29.27,5.87l31.48,-17.16l-31.57,-17.38zm61.58,70.67c9.89,5.39 22.48,3.06 29.26,-5.86c2.71,-3.56 4.23,-7.74 4.14,-11.9c-0.09,-4.06 -1.72,-8.09 -4.46,-11.48c-6.9,-8.54 -19.2,-10.61 -28.85,-5.29l-31.57,17.37c10.49,5.72 20.99,11.44 31.48,17.16m52.47,10.74c-16.46,21.91 -47,27.63 -71,14.4c-17.59,-9.7 -35.18,-19.4 -52.77,-29.1c-16.37,-0.28 -32.3,-7.65 -42.66,-21.43c-6.55,-8.73 -10.26,-19 -10.04,-29.21c0.22,-9.96 4.18,-19.84 10.83,-28.17c16.73,-20.94 46.57,-26.02 69.99,-12.98l52.09,29c16.21,-0.08 32.14,6.81 42.77,20.12c6.65,8.33 10.61,18.21 10.83,28.17c0.22,10.21 -3.49,20.48 -10.04,29.2" fill="#c7e351" fill-rule="nonzero" id="path24"/>
   </g>
   <g id="g26" transform="matrix(1.33333 0 0 -1.33333 0 1333.33)">
    <path d="m79.7,814.65c-9.65,-5.31 -21.95,-3.25 -28.85,5.29c-2.74,3.4 -4.37,7.42 -4.46,11.48c-0.1,4.16 1.43,8.34 4.13,11.9c6.79,8.93 19.38,11.26 29.27,5.87l31.48,-17.16l-31.57,-17.38zm61.58,70.67c9.89,5.39 22.48,3.06 29.26,-5.86c2.71,-3.56 4.23,-7.74 4.14,-11.9c-0.09,-4.06 -1.72,-8.09 -4.46,-11.48c-6.9,-8.54 -19.2,-10.61 -28.85,-5.29l-31.57,17.37c10.49,5.72 20.99,11.44 31.48,17.16m52.47,10.74c-16.46,21.91 -47,27.63 -70.99,14.4c-17.6,-9.7 -35.19,-19.4 -52.78,-29.1c-16.37,-0.28 -32.3,-7.65 -42.66,-21.43c-6.55,-8.73 -10.26,-19 -10.04,-29.21c0.22,-9.96 4.18,-19.84 10.83,-28.17c16.73,-20.94 46.57,-26.02 69.99,-12.98l52.09,29c16.21,-0.08 32.14,6.81 42.77,20.12c6.65,8.33 10.61,18.21 10.83,28.17c0.22,10.21 -3.49,20.48 -10.04,29.2" fill="#74dd54" fill-rule="nonzero" id="path28"/>
   </g>
  </g>
 </g>
</svg>