<svg xmlns="http://www.w3.org/2000/svg" xmlns:xlink="http://www.w3.org/1999/xlink" viewBox="0 0 96.97 96.97"><defs><radialGradient id="a" cx="48.49" cy="48.49" r="47.99" gradientUnits="userSpaceOnUse"><stop offset="0" stop-color="#e2836f"/><stop offset="1" stop-color="#dc5950"/></radialGradient><linearGradient id="b" y1="48.49" x2="96.97" y2="48.49" gradientUnits="userSpaceOnUse"><stop offset="0.68" stop-color="#e2836f"/><stop offset="1" stop-color="#dc5950"/></linearGradient><radialGradient id="c" cx="30.44" cy="9.04" r="80.33" gradientUnits="userSpaceOnUse"><stop offset="0" stop-color="#dc5950"/><stop offset="1" stop-color="#e2836f"/></radialGradient><linearGradient id="d" x1="9.64" y1="48.49" x2="87.33" y2="48.49" xlink:href="#b"/></defs><circle cx="48.49" cy="48.49" r="47.99" style="stroke-miterlimit:10;fill:url(#a);stroke:url(#b)"/><circle cx="48.49" cy="48.49" r="38.34" style="stroke-miterlimit:10;fill:url(#c);stroke:url(#d)"/><path d="M73.24,62.79C71.31,61.44,70.48,59,70,56.69s-.68-4.75-1.87-6.79A10.81,10.81,0,0,0,61,45.2a31.61,31.61,0,0,0-8.8-.23A12.07,12.07,0,0,1,72.55,48c.21.48.64,1.09,1.11.86s.33-.7.27-1.09a14.7,14.7,0,0,1,2.84-11.06c-1.37-.13-2.15,1.47-3.13,2.44a6.34,6.34,0,0,1-5.28,1.35c-1.87-.23-3.67-.88-5.55-1.08-5.19-.57-10.29,2.46-13.46,6.62-.54-2.75,1.71-5.39,4.3-6.45s5.48-1,8.26-1.39a29.47,29.47,0,0,0,8.82-2.54A7.33,7.33,0,0,0,74.09,33c1-1.81.1-2.18-1.14-3.29-2.24-2-2.84-5.55-5.7-6.9A1.61,1.61,0,0,0,66,22.63a2.16,2.16,0,0,0-.84.83,8.64,8.64,0,0,1-3.38,2.73c-2.91,1.31-6.39.94-9.23,2.38a10.7,10.7,0,0,0-5.17,7.24A31.49,31.49,0,0,0,47,45a12.31,12.31,0,0,1,4.38-21c-.63-.86-1.91-.75-3-.68a13.91,13.91,0,0,1-9.53-3c-.24,1.38,1.41,2.21,2.4,3.19a6.35,6.35,0,0,1,1.36,5.39c-.25,1.9-.92,3.74-1.11,5.65-.51,5.14,2.62,10.07,6.66,13.29-2.39.41-4.77-1.22-6-3.33a17.71,17.71,0,0,1-1.77-7,37.52,37.52,0,0,0-1.86-9.61A10.06,10.06,0,0,0,35.12,23,2.09,2.09,0,0,0,33,22.65a3.08,3.08,0,0,0-.87,1c-1.78,2.51-5.43,3.19-7.1,5.77a1.9,1.9,0,0,0-.36,1.51c.18.57.76.91,1.25,1.26,1.93,1.43,2.74,3.9,3.21,6.26s.75,4.82,2,6.87a10.84,10.84,0,0,0,7.15,4.53A32.24,32.24,0,0,0,47,50a12,12,0,0,1-20.25-3c-.27-.61-1-1.37-1.43-.85a1,1,0,0,0-.08.81A14.38,14.38,0,0,1,22.3,58.26c1.42.11,2.26-1.51,3.3-2.49,1.49-1.4,3.76-1.57,5.78-1.26s4,1,6,1.13c5,.22,9.29-3.23,12.73-6.82,0,3.48-3.23,6.19-6.56,7.21s-6.88.86-10.31,1.43-7,2.19-8.41,5.39a1.83,1.83,0,0,0-.2.85c.07.74.82,1.16,1.41,1.6,2.45,1.84,3.07,5.64,5.84,7a1.61,1.61,0,0,0,1.07.19c.57-.14.89-.72,1.22-1.2,1.38-2,3.86-2.81,6.21-3.28s4.82-.73,6.87-2a10.85,10.85,0,0,0,4.62-7.16,32.29,32.29,0,0,0,.24-8.73A12.15,12.15,0,0,1,47.74,71c.31.85,1.48.84,2.37.75a14.58,14.58,0,0,1,10.23,3c.06-1.44-1.57-2.26-2.55-3.33-1.35-1.47-1.52-3.68-1.22-5.65s1-3.88,1.13-5.87C58,55,54.77,50.49,51,47.24c3.08-.45,5.82,2.31,6.79,5.27s.74,6.16,1.21,9.24a20.82,20.82,0,0,0,3.46,8.69c.85,1.22,2.32,2.47,3.65,1.8a5,5,0,0,0,1.39-1.43c1.9-2.3,5.53-2.94,6.79-5.64a1.67,1.67,0,0,0,.19-1.09C74.37,63.48,73.75,63.15,73.24,62.79ZM72.6,41.31c-.18.68-.34,1.27-.51,1.94l-2-1.7ZM45.21,25.1,43.62,27c-.08-.9-.16-1.69-.24-2.59ZM30.68,40a54.23,54.23,0,0,0-1-5.7c-.57-1.83-1.95-3.62-3.86-3.88a4.69,4.69,0,0,1,2.3-2.18,1.45,1.45,0,0,1,.91-.14,1.65,1.65,0,0,1,.78.53,18.15,18.15,0,0,1,4.23,7.24,10,10,0,0,0-3.27-8.24,7.07,7.07,0,0,0,2.91-3.07c1.92,1.93,2.75,5.09,3.45,7.65.41,1.49.74,3,1,4.53.09.49.36,3.86.71,4l-3.08-1.35a2.41,2.41,0,0,0,1.37-1.7,13.23,13.23,0,0,0-5.68,3.15c.78.61,1.85-.61,2.83-.44a1.49,1.49,0,0,1,1.07,1.29,8.85,8.85,0,0,1,0,1.78,5.68,5.68,0,0,0,2.82,5C34.3,47.65,31.48,44,30.68,40ZM44.92,49.3A7.11,7.11,0,0,1,38.33,47a4.94,4.94,0,0,1-1.21-3.12c-.06-.8-.06-1.59-.1-2.51,1.47.93,3,1.72,3.95,3.22A9,9,0,0,0,45.29,48l1.44.59c0,.07,0,.14,0,.21A14.85,14.85,0,0,1,44.92,49.3ZM26.51,53.69c.23-.64.43-1.23.65-1.85L29,53.44Zm22-17.51c.84-3.82,4.37-6.69,8.2-7.51,1.93-.42,3.95-.4,5.84-1s3.75-1.95,4-3.91c1.1.44,2.7,2,2.22,3.3a3.61,3.61,0,0,1-1.27,1.5A20.51,20.51,0,0,1,61,32a10,10,0,0,0,8.41-3.31,7.48,7.48,0,0,0,3.14,3c-4.76,3.17-10.6,4.15-16.25,5l1.33-3a2.31,2.31,0,0,0,1.72,1.29,14.15,14.15,0,0,0-3.17-5.7c-.64.84.7,2,.43,3a1.47,1.47,0,0,1-1.25.93,9,9,0,0,1-1.64,0,5.77,5.77,0,0,0-5.19,2.91Zm-.15,8.64a7.15,7.15,0,0,1-.27-5.77c1.16-3.15,3.23-4.24,7.54-4.08a12.32,12.32,0,0,1-3.53,4.17,7.92,7.92,0,0,0-3,3.89C48.89,43.57,48.67,44.11,48.39,44.82Zm5.59,25c.41-.46.93-1.07,1.54-1.77.08.86.16,1.64.24,2.53Zm-8.51-4.54c-2.29,1.06-4.89,1.08-7.34,1.62s-5.05,1.88-5.76,4.29a4,4,0,0,1-1.95-1.94,2.74,2.74,0,0,1,.74-2.6,8.27,8.27,0,0,1,2.35-1.55l4.6-2.3c-3.1.31-6.61.9-8.33,3.51a7.81,7.81,0,0,0-3.22-3.07l0,0c4.86-3.07,10.69-4.12,16.35-5.1l-1.36,3.09a2.3,2.3,0,0,0-1.72-1.3A14.52,14.52,0,0,0,43,65.6c.67-.77-.63-1.88-.45-2.89a1.48,1.48,0,0,1,1.27-1.06,9.52,9.52,0,0,1,1.77,0,6.17,6.17,0,0,0,4.74-2.31A8.5,8.5,0,0,1,45.47,65.28Zm5.93-13A7.2,7.2,0,0,1,49,58.85a4.52,4.52,0,0,1-2.8,1.06l-2.7.14a10.84,10.84,0,0,1,3.05-3.84,9.28,9.28,0,0,0,3.59-4.45l.58-1.39.19,0A11.76,11.76,0,0,1,51.4,52.24Zm6.79-1.82A8.79,8.79,0,0,0,54,47l-1.53-.62,0-.26a16.43,16.43,0,0,1,2.37-.51A7,7,0,0,1,61,48.16,4.07,4.07,0,0,1,61.82,50c.21,1.15.24,2.34.35,3.66C60.66,52.66,59.14,51.9,58.19,50.42Zm12.67,16.3a1.56,1.56,0,0,1-.9.09,1.74,1.74,0,0,1-.76-.56A19.34,19.34,0,0,1,65.07,59a9.8,9.8,0,0,0,3.31,8.32,6.71,6.71,0,0,0-3,3.09C61.78,66,61.66,59.72,60.1,54.19l3.11,1.34A2.48,2.48,0,0,0,62,57.26a15.09,15.09,0,0,0,5.67-3.08c-.78-.83-2.17.69-3.22.25-.83-.35-.72-1.54-.66-2.44A6.13,6.13,0,0,0,61,46.51c4.19,1.08,6.82,4.62,7.47,8.77a28.76,28.76,0,0,0,1,5.55,5.69,5.69,0,0,0,3.86,3.81A4.72,4.72,0,0,1,70.86,66.72Z" style="fill:#231f20"/><path d="M51.06,65.52c-1.78,3.51-4.79,5.11-8.43,6.2.94.74,1.76,1.42,2.62,2.06A7.39,7.39,0,0,0,51.06,75a23.81,23.81,0,0,1,2.39-.19,5,5,0,0,1,.74.09,8.19,8.19,0,0,1-5,1.79,7.27,7.27,0,0,1-5.33-2.13c-.79-.74-1.48-1.59-2.24-2.36A.79.79,0,0,0,41,72a27.31,27.31,0,0,0-3.68,1.09,9,9,0,0,0-1.87,1.44c-.14.11-.39.3-.44.26s-.35-.37-.31-.5a5,5,0,0,1,.56-1.47,6.65,6.65,0,0,1,3.81-2.64A28,28,0,0,1,43.9,69.1a12,12,0,0,0,6.58-3.31c.08-.09.17-.17.25-.25S50.78,65.53,51.06,65.52Z" style="fill:#231f20"/><path d="M31.5,48.67c-1.91-.38-3-1.79-4-3.23a43.43,43.43,0,0,1-2.37-4.78c-.81,1.16-1.71,2.34-2.49,3.6A6.45,6.45,0,0,0,22,48.49c.1.92.19,1.84.26,2.75a1.22,1.22,0,0,1-.15.68,7.57,7.57,0,0,1-1.7-5.7A7.24,7.24,0,0,1,22.34,42c.77-.83,1.67-1.55,2.45-2.36a1.15,1.15,0,0,0,.25-.89,17.26,17.26,0,0,0-.91-3.2,11.59,11.59,0,0,0-1.52-2.09c-.11-.16-.2-.34-.3-.51.2-.09.44-.31.61-.27a4.62,4.62,0,0,1,1.32.53,7.36,7.36,0,0,1,2.67,3.72,21,21,0,0,1,1.14,5.38,10.66,10.66,0,0,0,3,5.89C31.24,48.35,31.36,48.51,31.5,48.67Z" style="fill:#231f20"/><path d="M76.83,62c-.1.45-.5.43-.93.29A4.84,4.84,0,0,1,73.23,60a14,14,0,0,1-2-6.37,11.08,11.08,0,0,0-3.15-6.84l-.2-.21-.25-.34.11-.19a12.73,12.73,0,0,1,1.77,1.09,13.1,13.1,0,0,1,4.09,6.72c0,.11.07.22.11.34s.2,0,.23,0c.88-1.21,1.83-2.39,2.62-3.66s.72-3,.53-4.54c-.09-.81-.13-1.64-.18-2.46A4.86,4.86,0,0,1,77,43a5.6,5.6,0,0,1,1.56,3.12A7.23,7.23,0,0,1,76.84,53c-.79.91-1.75,1.66-2.62,2.49a.61.61,0,0,0-.18.48,31.46,31.46,0,0,0,1.17,4A10.73,10.73,0,0,0,76.83,62Z" style="fill:#231f20"/><path d="M48.17,29.24c1.76-3.25,4.67-4.95,8.37-5.95-1-.79-1.91-1.53-2.86-2.21A7.66,7.66,0,0,0,47.76,20c-.85.13-1.71.13-2.69.21.56-1.07,1.52-1.2,2.32-1.48a7.4,7.4,0,0,1,8,1.8c.76.7,1.4,1.53,2.13,2.26a1,1,0,0,0,.76.21,23.75,23.75,0,0,0,3.46-1,9.39,9.39,0,0,0,1.82-1.38,6.37,6.37,0,0,1,.63-.35c.07.26.24.54.19.77a4.55,4.55,0,0,1-2.31,2.85,13.53,13.53,0,0,1-6.17,1.95,11.2,11.2,0,0,0-7.19,3.36,3,3,0,0,1-.34.26Z" style="fill:#231f20"/></svg>