<svg xmlns="http://www.w3.org/2000/svg" viewBox="0 0 192.57 106.45"><g id="Layer_2" data-name="Layer 2"><g id="logo"><path d="M179,35.45l13.54,23.43-71.3,41.17S77.6,126.44,46.21,72l22.2-12.82s14.42,31.89,39.43,17.41S179,35.45,179,35.45Z" fill="#030909"/><path d="M13.54,71.87,0,48.44l72.82-42s43.66-26.39,75.05,28L125.66,47.23S111.24,15.34,86.23,29.82,13.54,71.87,13.54,71.87Z" fill="#030909"/><path d="M97.66,71.3A17.8,17.8,0,1,0,79.87,53.51,17.8,17.8,0,0,0,97.66,71.3Z" fill="#ff931e"/><path d="M34.84,99.07a9.29,9.29,0,1,0-9.3-9.29A9.28,9.28,0,0,0,34.84,99.07Z" fill="#030909"/><path d="M158.86,27.46a9.3,9.3,0,1,0-9.29-9.3A9.29,9.29,0,0,0,158.86,27.46Z" fill="#030909"/></g></g></svg>