<svg width="504" height="455" viewBox="0 0 504 455" fill="none" xmlns="http://www.w3.org/2000/svg">
<path d="M491.907 41.0452C477.111 15.5496 450.619 0.280104 421.026 0.280104H257.844C255.73 0.140018 253.616 0 251.502 0C249.389 0 247.275 0.140018 245.161 0.280104H81.9787C52.3861 0.280104 25.8936 15.5496 11.0972 41.0452C-3.69908 66.5409 -3.69908 96.9396 11.0972 122.435L180.621 414.235C195.417 439.731 221.91 455 251.502 455C281.095 455 307.587 439.731 322.384 414.235L491.907 122.435C506.704 97.0797 506.704 66.5409 491.907 41.0452ZM283.209 391.821C276.586 403.168 264.749 410.032 251.502 410.032C238.256 410.032 226.419 403.168 219.796 391.821L124.395 227.64L219.796 63.3189C225.714 53.0926 235.72 46.6487 247.275 45.3879H255.73C267.285 46.6487 277.29 53.2327 283.209 63.3189L378.61 227.5L283.209 391.821Z" fill="black"/>
</svg>
