<svg width="41" height="43" viewBox="0 0 41 43" fill="none" xmlns="http://www.w3.org/2000/svg">
    <path d="M21.7863 30.2312C21.2586 30.2312 20.7309 30.0786 20.2667 29.7544C19.046 28.9152 18.7409 27.2431 19.5801 26.0224L32.3784 7.45748L11.6137 7.31761C10.1324 7.30489 8.93709 6.09691 8.94981 4.61553C8.96252 3.14051 10.1578 1.9516 11.6328 1.9516C11.6392 1.9516 11.6455 1.9516 11.6519 1.9516L37.4838 2.12962C38.4756 2.13598 39.3848 2.68911 39.8425 3.57285C40.3003 4.45659 40.2303 5.5247 39.6709 6.3385L23.9988 29.0741C23.4775 29.8307 22.6382 30.2312 21.7863 30.2312Z" fill="url(#paint0_linear_639_124)"/>
    <path d="M28.5128 40.4419C28.5064 40.4419 28.5001 40.4419 28.4937 40.4419L2.66184 40.2703C1.67002 40.2639 0.760852 39.7108 0.303088 38.827C-0.154676 37.9433 -0.0910975 36.8815 0.47475 36.0677L16.1468 13.3321C16.986 12.1114 18.6581 11.8062 19.8789 12.6455C21.0996 13.4847 21.4047 15.1568 20.5655 16.3775L7.76718 34.9424L28.5319 35.0823C30.0132 35.095 31.2085 36.303 31.1958 37.7843C31.1831 39.253 29.9878 40.4419 28.5128 40.4419Z" fill="url(#paint1_linear_639_124)"/>
    <path d="M5.75169 4.93342L11.2639 9.19953C11.5055 9.3839 11.8552 9.21224 11.8552 8.90707V0.368497C11.8552 0.0633209 11.5055 -0.108341 11.2639 0.0760366L5.75169 4.3485C5.56096 4.50109 5.56096 4.78719 5.75169 4.93342Z" fill="url(#paint2_linear_639_124)"/>
    <path d="M33.0713 37.4728L27.5527 33.2003C27.3111 33.016 26.9678 33.1876 26.9678 33.4864V42.0377C26.9678 42.3429 27.3175 42.5082 27.5527 42.3238L33.0713 38.0514C33.2557 37.9051 33.2557 37.619 33.0713 37.4728Z" fill="url(#paint3_linear_639_124)"/>
    <defs>
    <linearGradient id="paint0_linear_639_124" x1="8.94561" y1="16.0964" x2="40.1431" y2="16.0964" gradientUnits="userSpaceOnUse">
    <stop stop-color="#734CE0"/>
    <stop offset="0.625" stop-color="#604DEF"/>
    <stop offset="1" stop-color="#524DF9"/>
    </linearGradient>
    <linearGradient id="paint1_linear_639_124" x1="-0.00208792" y1="26.3071" x2="31.1946" y2="26.3071" gradientUnits="userSpaceOnUse">
    <stop stop-color="#734CE0"/>
    <stop offset="0.625" stop-color="#604DEF"/>
    <stop offset="1" stop-color="#524DF9"/>
    </linearGradient>
    <linearGradient id="paint2_linear_639_124" x1="5.60832" y1="4.64128" x2="11.8529" y2="4.64128" gradientUnits="userSpaceOnUse">
    <stop stop-color="#734CE0"/>
    <stop offset="0.625" stop-color="#604DEF"/>
    <stop offset="1" stop-color="#524DF9"/>
    </linearGradient>
    <linearGradient id="paint3_linear_639_124" x1="26.9652" y1="37.762" x2="33.2117" y2="37.762" gradientUnits="userSpaceOnUse">
    <stop stop-color="#734CE0"/>
    <stop offset="0.625" stop-color="#604DEF"/>
    <stop offset="1" stop-color="#524DF9"/>
    </linearGradient>
    </defs>
    </svg>
    